<?xml version="1.0" encoding="utf-8"?>
<!-- Generator: Adobe Illustrator 18.0.0, SVG Export Plug-In . SVG Version: 6.00 Build 0)  -->
<!DOCTYPE svg PUBLIC "-//W3C//DTD SVG 1.1//EN" "http://www.w3.org/Graphics/SVG/1.1/DTD/svg11.dtd">
<svg version="1.1" id="katman_1" xmlns="http://www.w3.org/2000/svg" xmlns:xlink="http://www.w3.org/1999/xlink" x="0px" y="0px"
	 viewBox="0 0 595.3 184.3" enable-background="new 0 0 595.3 184.3" xml:space="preserve">
<g>
	<path fill="#FFFFFF" d="M184.6,86.3c-0.9-3.6-2.2-6.4-3.9-8.4c-1.6-1.8-3.6-3.1-5.9-3.9c-1.4-0.4-2.9-0.8-4.6-1
		c-1.7-0.2-3.6-0.3-5.7-0.3c-5.4,0-10.4,0.5-14.9,1.6c-1.6,0.4-3.2,0.8-4.7,1.3c-1.5,0.5-2.9,1.1-4.3,1.7c-1.4,0.6-2.6,1.3-3.9,2.1
		c-3.5,2.1-6.7,4.7-9.6,7.6c-3,2.9-5.6,6.2-8,9.9v67.3c0,2.3-0.3,4.3-0.8,5.8c-0.6,1.8-1.6,3.3-2.8,4.4c-1.3,1.2-2.7,1.9-4.2,2.3
		c-1,0.2-2,0.4-3,0.4c-0.9,0-1.8-0.1-2.8-0.2c-1.7-0.2-3.3-0.9-4.7-2.1c-1.3-1.1-2.3-2.6-3-4.4c-0.6-1.6-0.9-3.7-0.9-6.2V95.3
		c0-7.4-1.6-13.1-4.9-17.1c-3-3.7-8.1-5.5-15.4-5.5c-1.7,0-3.3,0-4.9,0.1c-1.6,0.1-3.2,0.2-4.7,0.4c-1.4,0.2-2.7,0.4-4,0.6
		c-1.3,0.3-2.6,0.5-3.9,0.9c-5.4,1.4-10.1,3.3-14.3,5.6c-4,2.3-7.4,4.9-10,8c-2.3,2.7-4,5.4-5,8.3v67.5c0,1.6,0,2.8-0.1,3.8
		c-0.1,0.9-0.4,2.1-1,3.4s-1.5,2.5-2.7,3.4c-2.1,1.5-4.2,2.3-6.6,2.3c-0.9,0-1.8-0.1-2.8-0.2c-1.7-0.2-3.3-0.9-4.7-1.9
		c-1.4-1-2.4-2.5-3.2-4.4c-0.7-1.7-1.1-3.8-1.1-6.4V68.8c0-2.2,0.3-4.2,0.8-6c0.6-1.8,1.7-3.2,3.5-4.4c1-0.7,2.1-1.2,3.3-1.6
		c1.2-0.4,2.4-0.5,3.6-0.5c1.3,0,2.6,0.2,3.9,0.6c1.3,0.4,2.4,1,3.4,1.8c1.1,0.9,1.9,1.9,2.4,3.2c0.6,1.3,0.9,2.4,0.9,3.2
		c0.1,0.9,0.1,2.1,0.1,3.5v0.3c3.3-3,7-5.6,11.2-7.8c5-2.6,10.5-4.5,16.6-5.9c3.9-0.9,7.8-1.4,12-1.7c1.1-0.1,2.3-0.1,3.5-0.2
		c1.2,0,2.3-0.1,3.5-0.1c8,0,14.6,1.1,19.8,3.4c5.2,2.3,9.3,5.1,12.3,8.5c1.1,1.3,2.2,2.7,3.2,4.2c1,1.5,1.7,2.9,2.3,4.3
		c0.2-0.2,0.3-0.4,0.5-0.5c0.1-0.2,0.3-0.3,0.5-0.5c3.3-3.5,7.2-6.7,11.9-9.6c4.7-2.9,10.1-5.2,16.3-7c3.1-0.9,6.4-1.6,10-2
		c3.5-0.5,7.3-0.7,11.2-0.7c14.8,0,25.8,3.9,33.2,11.8c7.3,7.8,10.9,19.8,10.9,36.2v62.7c0,2.4-0.3,4.4-1,6c-0.7,1.6-1.5,3-2.6,4
		c-1.3,1.3-2.8,2.1-4.5,2.5c-0.5,0.1-1,0.2-1.5,0.2c-0.5,0.1-1,0.1-1.5,0.1c-0.5,0-1,0-1.5,0c-0.5,0-1-0.1-1.4-0.1
		c-1.7-0.2-3.2-0.9-4.6-2.1c-1.4-1.1-2.4-2.7-3-4.7c-0.5-1.6-0.8-3.5-0.8-5.9v-62.7C186,95.3,185.5,90.3,184.6,86.3z"/>
	<path fill="#FFFFFF" d="M241.9,25.9c0.3-1.1,0.7-2.2,1.2-3.2c0.6-1,1.2-1.9,2-2.7c2.5-2.6,5.6-3.9,9.3-3.9c3.7,0,6.8,1.2,9.3,3.7
		c1.3,1.2,2.2,2.7,2.9,4.3c0.7,1.6,1,3.3,1,5.1c0,3.8-1.4,7-4.1,9.4c-2.5,2.2-5.6,3.3-9.1,3.3c-1.1,0-2.2-0.1-3.3-0.4
		c-1.1-0.2-2.1-0.6-3.1-1.2c-1-0.5-1.9-1.2-2.7-1.9c-1.3-1.2-2.2-2.6-2.9-4.2c-0.7-1.6-1-3.3-1-5.1C241.5,28.1,241.6,27,241.9,25.9z
		 M265.5,164.7c0,0.7-0.1,1.3-0.1,1.9c-0.1,1.6-0.5,3.1-1,4.5c-0.8,1.9-2,3.4-3.8,4.5c-0.9,0.6-1.9,1-2.9,1.2
		c-1,0.2-2.1,0.3-3.2,0.3c-1.3,0-2.6-0.2-3.8-0.5c-1.2-0.3-2.4-1-3.6-1.9c-1.2-0.9-2-2.2-2.6-3.6c-0.4-1.2-0.7-2.5-0.9-3.8
		c-0.2-1.4-0.3-2.9-0.3-4.5V70.5c0-3.1,0.5-5.8,1.4-8.1c0.8-2.1,2.2-3.6,4-4.6c1.9-1,3.9-1.4,6-1.4c2,0,4,0.5,5.8,1.6
		c1.8,1,3.1,2.6,3.8,4.6c0.8,2.3,1.3,4.9,1.3,7.7v92.4C265.6,163.3,265.6,164,265.5,164.7z"/>
	<path fill="#FFFFFF" d="M410,176c-1.5-0.2-2.6-0.5-3.3-0.9c-0.5-0.3-1.1-0.7-1.6-1.2c-0.6-0.5-1.1-0.9-1.5-1.3l-62.9-56.8
		l-15.7,8.8v40c0,3.9-1.3,6.9-3.9,9c-2.2,1.8-4.6,2.7-7.3,2.7c-0.9,0-1.8-0.1-2.6-0.4c-0.9-0.2-1.7-0.5-2.4-0.9
		c-0.7-0.4-1.4-0.8-2.1-1.4c-1.4-1.1-2.4-2.4-3-4c-0.6-1.6-1-3.3-1-5V17.4c0-2,0.4-3.8,1.3-5.4c0.8-1.3,1.8-2.5,3.1-3.4
		c1.1-0.7,2.2-1.3,3.4-1.7c1.2-0.4,2.4-0.6,3.6-0.6c1.3,0,2.6,0.2,3.8,0.7c1.2,0.5,2.4,1.1,3.4,2c1.2,1,2.2,2.3,2.8,3.8
		c0.6,1.5,0.9,3,0.9,4.6v85.4l81.8-47.5c0.1-0.1,0.2-0.1,0.3-0.2c1.3-0.7,2.8-1,4.3-1c1.5,0,2.9,0.3,4.1,0.9
		c0.2,0.1,0.5,0.2,0.7,0.4c0.2,0.1,0.5,0.3,0.7,0.4c0.2,0.2,0.4,0.3,0.6,0.5c0.2,0.2,0.4,0.3,0.6,0.5c0.2,0.2,0.3,0.4,0.5,0.6
		c0.8,0.9,1.4,1.9,1.8,3c0.5,1.1,0.7,2.3,0.7,3.5c0,3.2-1.7,5.9-5,8l-56.8,33.8l59.3,52.8c0.1,0.1,0.2,0.1,0.2,0.2
		c0.6,0.6,1.1,1.3,1.6,2c0.5,0.7,0.8,1.5,1.1,2.3c0.2,0.7,0.4,1.5,0.6,2.3c0.1,0.4,0.2,0.9,0.2,1.3c0,3-1.1,5.4-3.3,7.3
		c-0.2,0.2-0.4,0.4-0.7,0.6c-0.3,0.3-0.5,0.4-0.6,0.5c-0.1,0.1-0.3,0.2-0.5,0.4c-0.2,0.2-0.4,0.3-0.5,0.3c-0.1,0.1-0.3,0.1-0.5,0.2
		c-0.2,0.1-0.5,0.1-0.7,0.2c-0.2,0-0.5,0-0.8,0.1C413,176.3,411.5,176.2,410,176z"/>
	<path fill="#FFFFFF" d="M561.8,81.4c-2.1-0.9-4.2-1.7-6.4-2.5c-2.2-0.8-4.5-1.5-6.8-2.2c-2.3-0.7-4.7-1.3-7.1-1.9
		c-9.9-2.3-21-3.5-33.4-3.5c-1.3,0-2.5,0-3.7,0c-1.2,0-2.5,0.1-3.7,0.1c-1.2,0.1-2.4,0.1-3.6,0.2c-1.2,0.1-2.4,0.2-3.6,0.3
		s-2.4,0.3-3.6,0.4c-2.9,0.4-5.5,0.9-8.1,1.5c-2.5,0.6-4.8,1.3-7,2.2c-1.4,0.5-2.6,1.1-3.8,1.8c-1.2,0.6-2.2,1.3-3.1,2
		c-0.9,0.7-1.8,1.5-2.5,2.3c-1.9,2.1-2.9,4.8-2.9,8c0,1.6,0.2,3,0.7,4c0.5,1,1.3,1.9,2.4,2.7c0.9,0.7,2,1.3,3.2,1.9
		c1.2,0.6,2.5,1.1,4,1.6c1.5,0.5,3.2,0.9,4.9,1.3c5.6,1.1,12,1.8,19.2,2.1c6.9,0.3,14,0.5,21.2,0.8c0.6,0,1.2,0,1.8,0.1
		c7.9,0.3,15.7,0.8,23.3,1.5c1,0.1,2,0.2,2.9,0.3c1,0.1,1.9,0.2,2.8,0.4c0.9,0.1,1.9,0.3,2.8,0.4c0.9,0.2,1.8,0.3,2.7,0.5
		c0.9,0.2,1.8,0.4,2.6,0.6c0.9,0.2,1.7,0.4,2.6,0.7c0.8,0.2,1.7,0.5,2.5,0.7c0.8,0.3,1.6,0.5,2.4,0.8c6.7,2.4,12.2,5.8,16.4,10.3
		c4.5,4.9,6.8,11.3,6.8,19.2c0,7.2-2.3,13.4-6.8,18.4c-4.2,4.6-9.7,8.3-16.5,11.1c-6.4,2.6-13.8,4.5-22.2,5.7
		c-8.1,1.1-16.5,1.7-25.2,1.7c-2.6,0-5.3,0-8.2-0.1c-2.8-0.1-5.7-0.2-8.8-0.3c-6.2-0.2-12.4-0.8-18.5-1.8c-6.3-1-12.3-2.4-18.1-4.4
		c-1.5-0.5-3-1.1-4.4-1.7c-1.4-0.6-2.8-1.3-4.1-2c-1.3-0.7-2.6-1.5-3.9-2.3c-1.3-0.8-2.5-1.7-3.6-2.6c-0.4-0.3-0.9-0.7-1.2-1.1
		c-0.4-0.4-0.7-0.8-1.1-1.3c-1.2-1.7-1.8-3.5-1.8-5.6c0-2.5,0.7-4.7,2.2-6.6c1.8-2.3,4.1-3.4,6.9-3.4c1.8,0,3.6,0.6,5.3,1.9
		c3.4,2.3,7.2,4.3,11.3,5.8c2.2,0.8,4.4,1.5,6.7,2.2c2.3,0.6,4.7,1.2,7.1,1.6c4.9,0.9,10.1,1.5,15.6,1.9c1.8,0.1,3.7,0.2,5.6,0.3
		c1.9,0.1,3.8,0.1,5.7,0.2c1.9,0,3.9,0.1,5.9,0.1c7,0,13.7-0.3,20.2-1c0.7-0.1,1.4-0.2,2.1-0.2c0.7-0.1,1.4-0.2,2-0.3
		c0.7-0.1,1.3-0.2,2-0.3c0.6-0.1,1.3-0.2,1.9-0.4c0.6-0.1,1.2-0.3,1.8-0.4c0.6-0.1,1.2-0.3,1.8-0.4c0.6-0.1,1.1-0.3,1.7-0.5
		c0.6-0.2,1.1-0.3,1.6-0.5c0.5-0.2,1.1-0.3,1.6-0.5c4.4-1.5,7.8-3.5,10.3-5.8c1.9-1.9,2.9-4.3,2.9-7.2c0-3.3-1.1-5.8-3.3-7.5
		c-0.9-0.7-2-1.4-3.2-2c-1.2-0.6-2.5-1.2-4-1.7c-1.5-0.5-3.1-1-4.9-1.4c-1.4-0.3-2.8-0.6-4.3-0.8c-1.5-0.2-3-0.5-4.6-0.7
		s-3.3-0.4-5-0.5c-1.7-0.1-3.5-0.2-5.3-0.3c-6.7-0.3-13.6-0.6-20.6-0.8c-0.8,0-1.6,0-2.3-0.1c-7.9-0.2-15.6-0.7-23.2-1.3
		c-7.9-0.7-15.1-2-21.4-4.1c-3.3-1.1-6.3-2.5-9.1-4.1c-2.7-1.6-5.2-3.5-7.3-5.7c-4.6-4.7-6.9-11-6.9-18.9c0-7.9,2.2-14.5,6.7-19.7
		c4.1-4.9,9.5-8.7,16.1-11.5c6.3-2.7,13.4-4.5,21.2-5.6c7.6-1,15.3-1.5,23.2-1.5c12.9,0,24.9,1.1,36,3.2
		c11.3,2.2,21.9,5.8,31.6,10.9c2,1,3.5,2.5,4.4,4.3c0.6,1.2,0.9,2.5,1.1,3.8c0,0.2,0,0.4,0,0.7c0,1.2-0.2,2.4-0.6,3.5
		c-0.4,1.2-1,2.2-1.7,3.1c-0.8,1-1.8,1.8-3,2.5c-1.2,0.7-2.5,1-3.8,1c-1.3,0-2.5-0.3-3.7-0.9C565.9,83.2,563.9,82.3,561.8,81.4z"/>
</g>
</svg>
